<?xml version="1.0" ?><svg viewBox="0 0 24 24" xmlns="http://www.w3.org/2000/svg"><defs><style>.cls-1,.cls-2{fill:none;}.cls-2{stroke:#000;stroke-linecap:round;stroke-linejoin:round;}</style></defs><g data-name="Layer 2" id="Layer_2"><g id="Workspace"><rect class="cls-1" height="24" width="24"/><line class="cls-2" x1="7" x2="7" y1="16" y2="16"/><line class="cls-2" x1="9" x2="9" y1="16" y2="16"/><line class="cls-2" x1="11" x2="11" y1="16" y2="16"/><line class="cls-2" x1="13" x2="13" y1="16" y2="16"/><line class="cls-2" x1="15" x2="15" y1="16" y2="16"/><line class="cls-2" x1="17" x2="17" y1="16" y2="16"/><line class="cls-2" x1="7" x2="7" y1="12" y2="12"/><line class="cls-2" x1="9" x2="9" y1="12" y2="12"/><line class="cls-2" x1="11" x2="11" y1="12" y2="12"/><line class="cls-2" x1="13" x2="13" y1="12" y2="12"/><line class="cls-2" x1="8" x2="8" y1="14" y2="14"/><line class="cls-2" x1="8" x2="8" y1="18" y2="18"/><line class="cls-2" x1="10" x2="10" y1="18" y2="18"/><line class="cls-2" x1="12" x2="12" y1="18" y2="18"/><line class="cls-2" x1="14" x2="14" y1="18" y2="18"/><line class="cls-2" x1="16" x2="16" y1="18" y2="18"/><line class="cls-2" x1="18" x2="18" y1="18" y2="18"/><line class="cls-2" x1="10" x2="10" y1="14" y2="14"/><line class="cls-2" x1="12" x2="12" y1="14" y2="14"/><line class="cls-2" x1="14" x2="14" y1="14" y2="14"/><line class="cls-2" x1="16" x2="16" y1="14" y2="14"/><line class="cls-2" x1="18" x2="18" y1="14" y2="14"/><path class="cls-2" d="M15,12h3a1,1,0,0,0,1-1h0a3,3,0,0,0-3-3H16A3.48,3.48,0,0,0,9,8.19,2.94,2.94,0,0,0,8,8a3,3,0,0,0-3,3v1"/></g></g></svg>