<svg viewBox="0 0 32 32" xml:space="preserve" xmlns="http://www.w3.org/2000/svg"><path d="M22 10H0V8h22c1.103 0 2-.897 2-2s-.897-2-2-2-2 .897-2 2h-2c0-2.206 1.794-4 4-4s4 1.794 4 4-1.794 4-4 4zM29 18h-1v-2h1a1.001 1.001 0 0 0 0-2H18v-2h11c1.654 0 3 1.346 3 3s-1.346 3-3 3z" fill="#ffffff" class="fill-000000"></path><path d="M23 22h-1v-2h1a1.001 1.001 0 0 0 0-2H0v-2h23c1.654 0 3 1.346 3 3s-1.346 3-3 3z" fill="#ffffff" class="fill-000000"></path><path d="M16 28c-2.206 0-4-1.794-4-4h2c0 1.103.897 2 2 2s2-.897 2-2-.897-2-2-2H4v-2h12c2.206 0 4 1.794 4 4s-1.794 4-4 4zM2 12h2v2H2zM6 12h10v2H6zM0 20h2v2H0z" fill="#ffffff" class="fill-000000"></path></svg>